<svg width="24" height="26" viewBox="0 0 24 26" fill="none" xmlns="http://www.w3.org/2000/svg">
<path d="M11.0039 6.83789C10.7109 7.13086 10.7402 7.57031 11.0039 7.86328L14.5488 11.2031H6.14062C5.73047 11.2031 5.4375 11.5254 5.4375 11.9062V12.8438C5.4375 13.2539 5.73047 13.5469 6.14062 13.5469H14.5488L11.0039 16.916C10.7402 17.209 10.7402 17.6484 11.0039 17.9414L11.6484 18.5859C11.9414 18.8496 12.3809 18.8496 12.6445 18.5859L18.3574 12.873C18.6211 12.6094 18.6211 12.1699 18.3574 11.877L12.6445 6.19336C12.3809 5.92969 11.9414 5.92969 11.6484 6.19336L11.0039 6.83789Z" fill="#FFCD55"/>
</svg>
